<mxfile host="app.diagrams.net" modified="2024-05-23T02:28:07.395Z" agent="Mozilla/5.0 (Windows NT 10.0; Win64; x64) AppleWebKit/537.36 (KHTML, like Gecko) Chrome/125.0.0.0 Safari/537.36" version="24.4.6" etag="4S62GoD1AkFBCzKuMLDx" type="github">
  <diagram name="PÃ¡gina-1" id="tVF3IE6NfxoX46WaIEN7">
    <mxGraphModel>
      <root>
        <mxCell id="0" />
        <mxCell id="1" parent="0" />
      </root>
    </mxGraphModel>
  </diagram>
</mxfile>
